<svg width="60" height="50" viewBox="0 0 60 50" fill="none" xmlns="http://www.w3.org/2000/svg">
<path d="M39.9719 49.0909H39.6005C26.9151 49.0909 20.8009 44.9084 19.7438 35.5395C19.6295 34.5596 20.4867 33.6753 21.6866 33.5797C22.858 33.4841 23.9152 34.225 24.0294 35.2049C24.858 42.7096 29.0865 45.5059 39.6291 45.5059H40.0005C51.6288 45.5059 55.743 42.0643 55.743 32.3369V16.754C55.743 7.02664 51.6288 3.58502 40.0005 3.58502H39.6291C29.0293 3.58502 24.8008 6.42913 24.0294 14.0772C23.8866 15.0571 22.9152 15.798 21.6866 15.7024C20.4867 15.6307 19.6295 14.7464 19.7153 13.7665C20.6867 4.25422 26.8294 0 39.6005 0H39.9719C54.0002 0 60 5.01903 60 16.754V32.3369C60 44.0719 54.0002 49.0909 39.9719 49.0909Z" fill="#661CB0"/>
<path d="M38.9419 26.338H2.14281C0.971405 26.338 0 25.5254 0 24.5455C0 23.5656 0.971405 22.753 2.14281 22.753H38.9419C40.1133 22.753 41.0847 23.5656 41.0847 24.5455C41.0847 25.5254 40.1419 26.338 38.9419 26.338Z" fill="#661CB0"/>
<path d="M32.5701 34.3448C32.0273 34.3448 31.4844 34.1775 31.0559 33.819C30.2273 33.1259 30.2273 31.9786 31.0559 31.2855L39.1128 24.5457L31.0559 17.8059C30.2273 17.1127 30.2273 15.9655 31.0559 15.2724C31.8844 14.5793 33.2558 14.5793 34.0844 15.2724L43.6556 23.279C44.4841 23.9721 44.4841 25.1193 43.6556 25.8124L34.0844 33.819C33.6558 34.1775 33.113 34.3448 32.5701 34.3448Z" fill="#661CB0"/>
</svg>
