<svg width="60" height="60" viewBox="0 0 60 60" fill="none" xmlns="http://www.w3.org/2000/svg">
<path d="M25 31.75C23.1457 31.75 21.3332 31.2003 19.7915 30.17C18.2498 29.14 17.0482 27.6758 16.3386 25.9627C15.6291 24.2496 15.4434 22.3646 15.8051 20.546C16.1669 18.7275 17.0597 17.057 18.3709 15.7459C19.682 14.4348 21.3525 13.5419 23.171 13.1802C24.9895 12.8184 26.8745 13.0041 28.5877 13.7136C30.3007 14.4232 31.765 15.6248 32.795 17.1665C33.8252 18.7083 34.375 20.5208 34.375 22.375C34.375 24.8614 33.3872 27.246 31.6292 29.0043C29.871 30.7623 27.4865 31.75 25 31.75ZM25 16.75C23.8875 16.75 22.8 17.0799 21.875 17.698C20.95 18.3161 20.229 19.1946 19.8032 20.2224C19.3774 21.2503 19.266 22.3813 19.4831 23.4724C19.7001 24.5635 20.2357 25.5658 21.0225 26.3525C21.8092 27.1393 22.8115 27.675 23.9025 27.892C24.9937 28.109 26.1247 27.9975 27.1525 27.5718C28.1805 27.146 29.059 26.425 29.677 25.5001C30.295 24.5751 30.625 23.4875 30.625 22.375C30.625 20.8832 30.0322 19.4524 28.9775 18.3975C27.9225 17.3426 26.4917 16.75 25 16.75Z" fill="#661CB0"/>
<path d="M42.5 49.25C42.0047 49.2435 41.5315 49.044 41.1813 48.6938C40.831 48.3435 40.6315 47.8702 40.625 47.375C40.625 42.5 37.975 39.25 25 39.25C12.025 39.25 9.375 42.5 9.375 47.375C9.375 47.8722 9.17745 48.3493 8.82583 48.7008C8.4742 49.0525 7.99727 49.25 7.5 49.25C7.00273 49.25 6.5258 49.0525 6.17417 48.7008C5.82255 48.3493 5.625 47.8722 5.625 47.375C5.625 35.5 19.2 35.5 25 35.5C30.8 35.5 44.375 35.5 44.375 47.375C44.3685 47.8702 44.169 48.3435 43.8187 48.6938C43.4685 49.044 42.9953 49.2435 42.5 49.25Z" fill="#661CB0"/>
</svg>
