<svg width="29" height="29" viewBox="0 0 29 29" fill="none" xmlns="http://www.w3.org/2000/svg">
<path d="M20.0556 14.5C20.0556 17.5682 17.5682 20.0556 14.5 20.0556C11.4317 20.0556 8.94444 17.5682 8.94444 14.5C8.94444 11.4317 11.4317 8.94444 14.5 8.94444C17.5682 8.94444 20.0556 11.4317 20.0556 14.5ZM20.0556 14.5V16.5833C20.0556 18.501 21.6101 20.0556 23.5278 20.0556C25.4454 20.0556 27 18.501 27 16.5833V14.5C27 7.59644 21.4036 2 14.5 2C7.59644 2 2 7.59644 2 14.5C2 21.4036 7.59644 27 14.5 27H20.0556" stroke="#6E6E6E" stroke-opacity="0.85" stroke-width="3" stroke-linecap="round" stroke-linejoin="round"/>
</svg>
