<svg width="23" height="24" viewBox="0 0 23 24" fill="none" xmlns="http://www.w3.org/2000/svg">
<path d="M20.4563 2.66873C17.0531 -0.722908 11.5346 -0.722908 8.15439 2.66873C5.7745 5.02562 5.06168 8.41726 5.98145 11.4065L0.577828 16.8101C0.198425 17.201 -0.0660073 17.9713 0.0144722 18.5232L0.359384 21.0295C0.485852 21.8573 1.25615 22.6391 2.08394 22.7541L4.5903 23.099C5.14216 23.1795 5.91247 22.9265 6.30337 22.5241L7.24613 21.5814C7.47607 21.3629 7.47607 20.995 7.24613 20.7651L5.01569 18.5347C4.68228 18.2012 4.68228 17.6494 5.01569 17.316C5.34911 16.9826 5.90097 16.9826 6.23438 17.316L8.47631 19.5579C8.69476 19.7763 9.06266 19.7763 9.28113 19.5579L11.7185 17.132C14.6962 18.0633 18.0879 17.339 20.4563 14.9821C23.8479 11.5904 23.8479 6.06036 20.4563 2.66873ZM14.3743 11.6134C12.7877 11.6134 11.5001 10.3258 11.5001 8.73918C11.5001 7.15258 12.7877 5.86491 14.3743 5.86491C15.9609 5.86491 17.2486 7.15258 17.2486 8.73918C17.2486 10.3258 15.9609 11.6134 14.3743 11.6134Z" fill="#6E6E6E" fill-opacity="0.85"/>
</svg>
